<?xml version="1.0" encoding="utf-8"?>
<!-- Generator: Adobe Illustrator 22.0.0, SVG Export Plug-In . SVG Version: 6.00 Build 0)  -->
<svg version="1.1" id="Laag_1" xmlns="http://www.w3.org/2000/svg" xmlns:xlink="http://www.w3.org/1999/xlink" x="0px" y="0px"
	 viewBox="0 0 103.3 99.6" style="enable-background:new 0 0 103.3 99.6;" xml:space="preserve">
<style type="text/css">
	.st0{fill:#27D07C;}
	.st1{fill:#FFFFFF;}
	.st2{fill:#29129D;}
	.st3{fill:none;stroke:#29129D;stroke-width:8;stroke-miterlimit:10;}
	.st4{fill:none;stroke:#FD376A;stroke-width:8;stroke-miterlimit:10;}
	.st5{fill:none;stroke:#27D07C;stroke-width:8;stroke-miterlimit:10;}
	.st6{fill:#FD376A;}
	.st7{fill:none;stroke:#FFFFFF;stroke-width:6;stroke-miterlimit:10;}
</style>
<g>
	<circle class="st0" cx="53" cy="50" r="50"/>
	<path class="st1" d="M66,48.8c-2.8,4.2-7.1,10.5-12.7,10.4c-4.6-0.1-8.1-4.3-11.4-8.5c-1.3-1.6-3.3-4.1-4.7-8.1
		c-1-2.8-2.7-7.5-1.1-13c2.2-7.5,9-10.8,10.6-11.6c3-1.5,5.4-1.6,5.9-1.6c2.8-0.1,4.9,0.7,5.9,1.1c4.7,1.8,9.3,6.2,11.1,12.1
		c1.7,5.4,0.4,10.1-0.1,12.1C68.6,45,67.1,47.2,66,48.8z"/>
	<path class="st1" d="M84.5,74.4c-2,2.5-4.9,5.5-9,8.1c-7.7,5-15,5.9-18.8,6.3c-2.4,0.3-6.7,0.7-12.2-0.3c-7-1.2-11.7-4-12.8-4.6
		c-5.1-3.1-8.4-6.8-10.3-9.3c5.5-1.7,10.9-3.3,16.4-5c1.6,1.6,3.2,3.2,5.1,4.9c3.1,2.8,6.1,5.2,9,7.2c2.7-1.7,5.6-3.8,8.7-6.3
		c2.4-2,4.6-4,6.4-5.9C72.8,71,78.6,72.7,84.5,74.4z"/>
</g>
</svg>
